 <svg  version="1.0" xmlns="http://www.w3.org/2000/svg"  width="1350.000000pt" height="759.000000pt" viewBox="0 0 1350.000000 759.000000"  preserveAspectRatio="xMidYMid meet">  <g transform="translate(0.000000,759.000000) scale(0.100000,-0.100000)" fill="#e04a00" stroke="none"> <path d="M5535 7391 c-18 -8 -92 -85 -176 -186 -51 -61 -264 -273 -354 -351 -44 -38 -98 -85 -120 -104 -72 -63 -205 -199 -205 -211 0 -6 -6 -25 -14 -42 -8 -18 -26 -58 -40 -89 -65 -144 -81 -180 -132 -285 -49 -101 -60 -117 -110 -153 -63 -47 -78 -77 -69 -137 6 -39 9 -43 33 -43 50 0 134 54 282 179 41 35 86 71 100 80 14 8 27 18 30 21 3 3 23 18 46 33 22 15 53 41 69 57 l28 29 -29 6 c-42 9 -94 33 -94 44 0 30 148 183 315 327 44 38 82 71 85 74 3 3 34 30 70 60 35 30 77 67 93 82 17 14 38 29 48 31 16 4 18 1 12 -21 -12 -52 -78 -163 -126 -217 -29 -31 -37 -61 -37 -140 0 -41 -5 -87 -12 -102 -11 -26 -81 -124 -111 -155 -21 -23 -83 -102 -102 -130 -15 -25 -15 -28 -1 -28 20 0 137 116 206 205 67 86 59 77 122 155 117 145 243 238 304 225 37 -9 153 -44 179 -55 11 -5 42 -13 69 -18 l48 -10 -7 31 c-3 18 -10 55 -15 82 -5 28 -12 65 -16 82 -3 18 -3 40 0 50 6 15 9 14 29 -8 13 -13 54 -76 91 -139 77 -128 167 -227 275 -298 70 -46 94 -50 99 -14 3 18 -16 43 -78 107 -127 129 -155 171 -234 347 -9 20 -16 40 -16 45 -1 15 -65 101 -115 155 -28 29 -68 76 -90 103 -22 28 -43 52 -46 55 -3 3 -24 32 -47 64 -65 95 -154 197 -180 207 -27 10 -30 10 -57 0z"/> <path d="M7173 7123 c-16 -21 -41 -56 -56 -79 -15 -22 -35 -49 -45 -60 -9 -10 -29 -37 -44 -59 -15 -22 -43 -58 -63 -80 -19 -22 -35 -43 -35 -47 0 -4 -6 -13 -13 -20 -7 -7 -81 -103 -164 -213 -83 -110 -195 -245 -250 -300 -100 -102 -121 -121 -208 -190 -27 -21 -91 -80 -142 -129 -91 -89 -127 -145 -168 -256 -24 -63 -88 -190 -97 -190 -5 0 -8 -6 -8 -14 0 -8 -6 -21 -12 -28 -7 -7 -30 -39 -52 -70 -57 -86 -117 -141 -199 -181 -40 -21 -77 -37 -82 -37 -21 -1 -73 -59 -116 -130 -25 -41 -82 -129 -127 -195 -45 -65 -79 -122 -76 -125 3 -3 74 65 158 151 121 123 170 166 239 208 144 87 347 229 347 242 0 5 -13 24 -30 42 -16 19 -30 39 -30 43 1 25 73 106 359 403 276 288 301 311 329 311 22 0 24 -3 18 -35 -4 -20 -27 -75 -51 -123 -53 -104 -77 -163 -70 -170 8 -8 81 58 280 252 104 102 195 186 202 186 38 0 9 -47 -221 -365 -40 -55 -96 -134 -123 -176 -46 -70 -49 -78 -37 -100 25 -45 24 -48 -111 -239 -21 -30 -42 -59 -47 -65 -39 -47 -109 -147 -105 -151 4 -5 67 59 322 325 260 272 460 471 472 471 7 0 13 -6 13 -13 0 -12 -43 -101 -70 -147 -30 -50 -233 -398 -241 -412 -21 -40 12 -12 106 89 55 59 114 121 130 138 27 28 148 160 260 283 22 24 43 50 47 57 7 12 -1 95 -21 200 -21 110 -8 134 58 99 46 -24 188 -131 243 -182 85 -80 103 -93 106 -78 2 7 -16 67 -38 132 -23 66 -45 133 -50 149 -11 40 -30 95 -44 124 -16 34 -14 153 2 158 15 6 244 -228 277 -284 19 -32 25 -55 25 -103 0 -68 10 -94 49 -128 64 -57 77 -68 101 -83 53 -34 110 -100 131 -151 12 -29 28 -67 35 -85 25 -57 11 -80 -42 -67 -39 10 -28 -10 39 -67 34 -30 73 -64 86 -76 39 -35 43 -17 11 43 -35 63 -37 84 -11 84 17 0 42 -19 145 -112 40 -36 46 -35 46 7 0 37 8 42 43 23 19 -9 101 -72 117 -88 3 -3 30 -22 60 -43 51 -34 100 -48 100 -29 0 30 -237 271 -297 302 -129 67 -156 91 -223 190 -8 12 -19 28 -25 34 -16 17 -132 194 -145 221 -10 21 -77 123 -139 215 -91 135 -152 209 -293 356 -69 71 -147 153 -174 183 -27 30 -101 107 -164 173 -133 136 -149 143 -197 81z"/> <path d="M5573 6432 c-110 -72 -291 -249 -663 -652 -13 -13 -130 -144 -208 -230 -24 -27 -14 -39 16 -18 24 16 165 142 252 224 108 102 133 124 192 170 87 68 116 57 74 -29 -14 -28 -35 -65 -46 -82 -19 -29 -60 -106 -60 -112 0 -23 93 44 219 157 93 84 117 98 133 82 14 -14 -8 -60 -83 -177 -46 -71 -71 -127 -61 -137 5 -5 36 21 78 69 38 42 80 88 93 102 73 79 171 234 171 270 0 14 40 90 50 96 5 3 59 -42 120 -100 106 -99 149 -128 132 -87 -6 15 -116 187 -163 254 -11 15 -19 29 -19 32 0 5 -76 118 -113 169 -26 34 -59 34 -114 -1z"/> <path d="M9245 6280 c-3 -5 -1 -18 5 -29 16 -31 12 -63 -14 -90 -25 -28 -56 -140 -56 -204 0 -32 3 -38 20 -35 22 3 23 -1 14 -39 -4 -15 -2 -52 4 -83 6 -30 14 -81 18 -112 l7 -56 -44 -41 c-24 -23 -62 -47 -84 -53 -91 -27 -146 -79 -225 -213 -30 -49 -57 -92 -60 -95 -4 -3 -12 -14 -18 -25 -5 -11 -60 -79 -121 -150 -108 -126 -127 -160 -96 -171 24 -10 47 8 200 155 125 120 165 151 196 151 27 0 55 20 129 90 116 109 151 141 195 175 27 22 56 46 63 52 20 19 44 3 121 -81 132 -143 548 -556 559 -556 7 0 9 7 4 18 -7 17 -62 103 -72 112 -3 3 -17 21 -30 40 -13 19 -27 37 -30 40 -4 3 -30 36 -59 74 -36 48 -49 72 -42 79 7 7 19 6 38 -4 25 -13 164 -103 188 -122 12 -9 141 -101 175 -125 43 -30 58 -46 65 -74 6 -23 3 -27 -25 -33 -30 -7 -31 -8 -14 -26 48 -53 388 -270 465 -297 28 -9 47 -10 85 -1 l49 11 137 -68 c76 -37 141 -64 145 -61 3 4 4 8 2 10 -66 53 -181 134 -238 167 -56 33 -89 46 -136 51 -38 5 -82 19 -113 36 -44 25 -70 44 -169 130 -12 11 -34 43 -49 72 -20 41 -45 67 -112 119 -48 37 -168 148 -267 248 -99 99 -200 197 -225 216 -25 20 -87 69 -139 110 -52 40 -116 90 -143 112 -51 39 -89 47 -150 31 -24 -6 -29 -4 -38 20 -5 14 -10 51 -10 80 0 46 3 56 22 66 13 7 29 18 36 26 7 7 20 13 28 13 8 0 14 3 15 8 0 4 4 43 8 87 4 44 11 88 15 97 6 13 1 21 -18 29 -15 7 -29 23 -32 36 -7 27 -32 43 -67 43 -13 0 -33 11 -45 25 -22 25 -56 33 -67 15z m72 -500 c14 -27 17 -98 5 -116 -4 -6 -16 -14 -28 -18 -18 -5 -21 -2 -22 21 0 16 -4 54 -8 86 -6 58 -6 59 17 55 13 -1 29 -14 36 -28z"/> <path d="M3874 5743 c-94 -98 -215 -214 -270 -258 -54 -44 -101 -82 -104 -85 -3 -4 -39 -32 -80 -65 -41 -32 -158 -143 -260 -245 -216 -219 -256 -247 -385 -275 -30 -6 -75 -37 -75 -51 0 -4 -6 -15 -14 -23 -7 -9 -30 -47 -51 -86 -35 -67 -143 -232 -184 -285 -193 -242 -189 -250 22 -38 105 106 176 170 203 182 30 13 47 29 59 56 20 44 58 82 135 135 30 21 59 42 65 47 5 5 46 35 90 67 90 66 154 103 167 95 18 -11 3 -80 -38 -174 -8 -19 -19 -44 -24 -55 -5 -11 -11 -33 -15 -50 -5 -21 -50 -72 -153 -172 -81 -78 -141 -143 -134 -143 6 0 12 4 12 8 0 5 10 14 23 19 12 6 70 51 128 100 58 48 127 106 154 128 70 56 119 101 195 172 l65 63 -38 0 c-110 0 -94 43 88 226 77 78 192 185 255 240 63 54 133 115 155 136 22 21 48 38 58 38 16 0 17 -5 12 -32 -4 -18 -13 -44 -20 -58 -77 -152 -95 -200 -95 -257 -1 -96 -14 -137 -63 -205 -26 -35 -51 -68 -56 -74 -11 -13 -41 -71 -41 -79 0 -8 55 41 152 136 114 114 145 136 256 193 110 56 132 55 101 -1 -91 -163 -300 -376 -505 -516 -22 -15 -49 -35 -60 -45 -10 -9 -37 -29 -60 -45 -22 -15 -49 -35 -60 -45 -10 -9 -36 -28 -56 -42 -36 -24 -52 -48 -25 -37 12 4 274 180 389 260 90 63 512 378 518 386 3 4 41 30 85 58 122 78 115 67 115 188 0 118 -3 124 -100 249 -47 61 -110 153 -110 161 0 11 -116 195 -147 233 -29 36 -40 42 -72 42 -35 0 -46 -10 -207 -177z"/> <path d="M7408 5775 c-15 -8 -70 -68 -122 -133 -113 -138 -99 -120 -166 -207 -30 -38 -57 -72 -60 -75 -15 -13 -109 -138 -119 -157 -6 -12 -11 -40 -11 -63 0 -32 -6 -47 -28 -68 -28 -27 -36 -34 -127 -107 -27 -22 -56 -47 -65 -55 -9 -8 -28 -24 -41 -35 -118 -97 -189 -160 -189 -167 0 -12 -36 -36 370 240 86 59 288 207 300 221 3 3 41 38 85 76 44 39 107 96 140 127 44 42 68 58 89 58 31 0 164 -75 251 -143 5 -4 62 -43 125 -87 63 -43 120 -82 125 -87 10 -8 128 -88 244 -165 31 -20 61 -41 67 -45 12 -9 10 -8 191 -117 78 -47 144 -86 147 -86 4 0 23 -11 44 -24 42 -26 88 -43 79 -29 -3 5 -64 48 -134 96 -150 100 -163 114 -232 230 -64 107 -100 135 -231 187 -162 63 -205 86 -249 136 -23 26 -44 59 -48 73 -3 13 -12 36 -19 50 -8 14 -14 34 -14 43 0 9 -4 19 -9 23 -5 3 -13 20 -16 38 -11 49 -62 147 -91 174 -47 43 -98 69 -158 81 -75 15 -95 15 -128 -3z"/> <path d="M7542 5170 c-49 -35 -42 -30 -212 -171 -146 -122 -205 -163 -320 -222 -140 -73 -236 -148 -313 -247 -29 -36 -54 -67 -57 -70 -23 -22 -41 -50 -32 -50 5 0 44 31 85 70 122 114 178 156 277 208 136 72 295 164 310 181 5 6 26 21 170 120 41 28 85 51 98 51 24 0 90 -36 202 -110 30 -20 110 -73 177 -118 68 -44 125 -77 127 -74 2 4 -47 52 -110 106 -161 140 -189 170 -224 245 -18 36 -41 76 -53 89 -29 31 -75 29 -125 -8z"/> <path d="M4478 5038 c-36 -36 -125 -132 -246 -267 -60 -66 -102 -124 -102 -141 0 -23 -28 -90 -38 -90 -4 0 -41 -32 -82 -70 -41 -38 -78 -70 -82 -70 -4 0 -12 -9 -18 -21 -11 -19 -10 -20 12 -8 64 33 429 293 448 319 12 17 153 120 164 120 14 0 119 -63 166 -100 19 -15 58 -43 85 -62 28 -19 131 -93 230 -164 99 -71 198 -140 220 -154 22 -13 46 -30 53 -37 15 -14 32 -17 31 -5 0 7 -25 27 -201 170 -131 106 -200 181 -241 263 -20 41 -37 80 -37 87 0 7 -4 20 -10 30 -16 30 -50 110 -50 121 0 5 -20 27 -44 48 -32 28 -62 43 -112 56 -38 9 -77 17 -86 17 -10 0 -37 -19 -60 -42z"/> <path d="M9230 4850 c-25 -26 -63 -66 -84 -89 -22 -22 -37 -43 -34 -46 3 -3 34 13 70 37 124 84 151 92 206 64 42 -21 75 -30 71 -18 -2 6 -32 31 -67 56 -80 60 -103 59 -162 -4z"/> <path d="M4600 4633 c-8 -3 -17 -9 -20 -12 -3 -3 -23 -19 -46 -34 -22 -15 -49 -35 -60 -45 -70 -64 -220 -176 -279 -207 -99 -54 -140 -80 -186 -122 -60 -54 -73 -86 -18 -43 24 19 46 38 49 42 5 7 58 35 220 119 25 12 47 26 50 29 3 3 23 17 45 30 22 13 75 50 118 82 43 32 88 58 99 58 23 0 93 -41 252 -147 60 -40 113 -73 118 -73 17 0 7 17 -24 40 -95 70 -175 148 -204 198 -48 84 -71 101 -114 85z"/> <path d="M3005 3724 c-49 -51 -122 -127 -162 -169 -77 -81 -116 -98 -108 -47 11 75 14 276 4 288 -15 19 -208 20 -231 2 -12 -10 -17 -43 -22 -158 -3 -80 -10 -183 -15 -230 -5 -47 -13 -230 -17 -407 -5 -252 -4 -326 6 -338 10 -11 35 -15 109 -15 155 0 140 -22 143 218 3 235 7 245 68 166 32 -41 56 -72 78 -99 4 -5 31 -46 60 -90 93 -145 123 -185 137 -185 18 0 169 128 185 157 11 19 3 35 -91 168 -57 81 -123 171 -146 201 -24 30 -43 59 -43 65 0 13 31 55 80 109 17 19 51 57 73 84 23 27 70 82 105 121 34 40 62 79 62 86 0 20 -152 169 -170 168 -8 0 -55 -43 -105 -95z m135 -119 c0 -8 -7 -15 -15 -15 -8 0 -15 7 -15 15 0 8 7 15 15 15 8 0 15 -7 15 -15z m-482 -478 c2 -11 -3 -17 -16 -17 -26 0 -34 11 -20 27 14 17 32 12 36 -10z"/> <path d="M3395 3810 c3 -5 28 -10 55 -10 59 0 71 -14 30 -35 -17 -9 -30 -23 -30 -35 0 -10 -5 -22 -11 -25 -21 -13 -31 -62 -30 -141 1 -44 -3 -101 -8 -125 -6 -25 -13 -90 -16 -145 -3 -54 -9 -124 -12 -154 -6 -53 -6 -54 -15 -22 -5 17 -12 32 -17 32 -4 0 -11 -75 -14 -167 -10 -240 -9 -307 5 -321 15 -15 231 -16 259 -2 12 7 19 21 19 40 0 30 -14 48 -25 30 -10 -16 -55 -12 -55 4 0 8 5 18 10 21 8 5 7 12 -2 22 -10 12 -9 17 5 28 9 7 17 18 17 24 0 15 22 9 28 -7 2 -7 -3 -12 -12 -12 -17 0 -22 -15 -7 -24 5 -3 16 6 26 20 18 27 14 90 -9 127 -9 14 -8 20 7 28 21 12 22 27 0 51 -15 17 -15 19 0 36 14 16 17 43 17 173 0 85 5 195 11 244 18 154 26 319 17 338 -8 15 -24 17 -129 17 -78 0 -118 -4 -114 -10z m171 -722 c-4 -13 -9 -38 -13 -55 -6 -36 -26 -58 -43 -48 -17 11 -11 35 10 35 18 0 19 5 13 45 -5 42 -4 45 17 45 18 0 21 -4 16 -22z m-19 -204 c-3 -3 -16 -4 -29 -2 l-23 5 25 10 c23 10 41 1 27 -13z"/> <path d="M5770 3810 c0 -5 18 -10 40 -10 38 0 40 -2 40 -29 0 -17 -4 -32 -9 -35 -5 -4 -19 -26 -31 -50 -19 -40 -22 -66 -25 -224 -2 -98 -8 -197 -14 -219 -10 -36 -28 -135 -35 -190 -1 -12 -8 -29 -16 -37 -9 -11 -14 -66 -18 -178 -5 -148 -3 -162 13 -175 13 -9 54 -13 136 -13 125 0 144 7 137 52 -2 17 -10 22 -33 23 -27 0 -30 3 -27 29 2 16 -2 33 -10 38 -8 6 1 7 26 3 36 -6 38 -5 26 10 -10 12 -10 19 -2 27 15 15 16 98 2 98 -16 0 -11 27 6 34 10 4 14 14 11 25 -2 11 -1 79 4 153 5 73 13 232 19 353 5 120 15 234 21 253 9 28 8 36 -7 53 -15 17 -31 19 -136 19 -72 0 -118 -4 -118 -10z m130 -25 c0 -8 -6 -15 -14 -15 -17 0 -28 14 -19 24 12 12 33 6 33 -9z m60 -685 c0 -10 -8 -24 -17 -30 -13 -8 -14 -13 -5 -16 6 -3 12 -13 12 -22 0 -12 -5 -11 -24 7 -23 22 -24 24 -8 52 19 33 42 38 42 9z m-40 -94 c0 -18 -30 -30 -43 -17 -5 5 -6 14 -3 20 10 16 46 13 46 -3z m10 -122 c0 -16 -16 -19 -25 -4 -8 13 4 32 16 25 5 -4 9 -13 9 -21z"/> <path d="M7054 3808 c-8 -13 -17 -129 -34 -433 -5 -104 -14 -223 -20 -263 -5 -40 -10 -110 -10 -155 -1 -45 -5 -127 -10 -182 -8 -88 -7 -102 7 -112 21 -16 235 -18 264 -3 18 10 19 23 19 210 0 186 1 201 20 220 11 11 32 22 47 26 16 3 39 9 53 14 56 19 108 20 125 4 16 -17 16 -16 -4 -337 -3 -60 -4 -112 -1 -117 3 -5 68 -8 145 -7 l140 2 7 300 c4 165 13 399 19 520 6 121 12 243 13 270 l1 50 -135 0 -135 0 -11 -200 c-5 -110 -14 -207 -18 -216 -9 -20 -56 -29 -152 -29 -99 0 -109 9 -100 91 14 128 22 324 14 342 -8 15 -24 17 -123 17 -77 0 -116 -4 -121 -12z m216 -53 c0 -11 -13 -15 -54 -15 -51 0 -74 9 -59 24 3 3 30 6 60 6 40 0 53 -4 53 -15z m240 -442 c-1 -46 -28 -70 -61 -53 -28 15 -24 29 14 45 37 16 47 18 47 8z m-350 -218 c0 -8 -6 -15 -14 -15 -17 0 -28 14 -19 24 12 12 33 6 33 -9z m575 -204 c7 -12 -12 -24 -25 -16 -11 7 -4 25 10 25 5 0 11 -4 15 -9z"/> <path d="M9820 3810 c0 -5 19 -11 43 -11 73 -3 77 -4 74 -14 -1 -5 -10 -9 -19 -8 -12 2 -18 -4 -18 -17 0 -10 -4 -21 -9 -24 -5 -4 -19 -26 -30 -50 -18 -37 -22 -67 -26 -202 -5 -166 -11 -211 -27 -232 -6 -6 -8 -25 -5 -41 3 -16 1 -53 -4 -83 -6 -29 -11 -63 -11 -75 0 -13 -6 -23 -13 -23 -19 0 -25 -49 -25 -211 0 -136 2 -149 19 -159 11 -5 71 -10 134 -10 124 0 145 8 133 53 -4 17 -12 23 -33 22 -24 0 -28 4 -25 24 1 13 -3 29 -8 36 -14 17 1 27 20 14 8 -5 21 -9 29 -9 11 0 11 3 1 15 -10 12 -10 19 -2 27 16 16 15 73 0 98 -11 17 -10 22 1 29 10 6 14 38 17 112 3 100 14 292 35 583 7 102 7 142 -2 152 -14 17 -249 21 -249 4z m190 -710 c0 -10 -8 -24 -17 -30 -17 -9 -17 -11 0 -21 9 -5 15 -15 11 -20 -4 -6 -15 -2 -29 11 -22 21 -22 23 -7 51 19 33 42 38 42 9z m-40 -89 c0 -5 -7 -14 -15 -21 -18 -15 -42 1 -31 19 8 13 46 15 46 2z m10 -135 c-13 -13 -35 7 -25 24 5 8 11 8 21 -1 10 -8 12 -15 4 -23z"/> <path d="M5360 3781 c-12 -30 -31 -116 -50 -236 -22 -131 -62 -81 -76 95 -7 93 -29 144 -67 154 -29 7 -125 6 -156 -3 -20 -5 -27 -18 -38 -61 -22 -87 -43 -180 -55 -240 -12 -66 -23 -80 -44 -59 -16 17 -33 150 -34 266 0 86 -10 91 -137 80 -54 -5 -102 -12 -107 -17 -4 -4 -3 -54 3 -112 6 -56 16 -184 21 -283 6 -99 14 -220 19 -270 5 -49 10 -129 10 -177 1 -100 19 -237 34 -255 6 -9 45 -13 126 -13 79 0 122 4 133 13 16 12 32 62 49 152 5 28 14 59 19 70 5 11 12 39 15 62 7 47 18 60 32 40 12 -16 33 -151 38 -246 3 -46 9 -77 17 -83 7 -4 65 -7 128 -6 131 3 128 1 149 108 6 30 18 87 26 125 9 39 20 92 25 118 5 26 12 58 16 70 4 12 13 51 21 87 27 128 42 196 58 265 9 39 20 92 25 119 5 26 14 62 19 80 6 17 12 55 13 85 l3 55 -35 8 c-19 5 -55 13 -80 18 -25 5 -59 12 -76 15 -28 6 -32 4 -44 -24z m-85 -721 c3 -11 4 -28 0 -39 -6 -19 17 -33 60 -35 16 -1 21 -9 23 -43 3 -34 -2 -48 -21 -67 -18 -18 -22 -27 -14 -35 9 -9 8 -17 0 -30 -10 -16 -8 -22 8 -37 24 -22 25 -44 0 -44 -10 0 -21 -9 -24 -20 -4 -16 -14 -20 -49 -20 -42 0 -45 2 -62 40 -16 37 -16 41 -1 57 12 12 15 24 10 47 -5 17 -8 45 -9 61 -1 26 3 30 24 30 24 0 25 -3 25 -60 0 -57 1 -60 25 -60 24 0 25 3 25 57 0 34 -5 60 -11 62 -6 2 -14 17 -18 33 -4 15 -21 40 -39 55 l-31 26 24 21 c32 26 47 26 55 1z m85 5 c0 -8 -7 -15 -15 -15 -8 0 -15 7 -15 15 0 8 7 15 15 15 8 0 15 -7 15 -15z m-150 -96 c0 -5 -7 -9 -15 -9 -15 0 -20 12 -9 23 8 8 24 -1 24 -14z"/> <path d="M5210 2773 c1 -14 50 -44 61 -38 15 10 -19 45 -43 45 -10 0 -18 -3 -18 -7z"/> <path d="M6466 3799 c-203 -5 -370 -10 -372 -11 -1 -2 -5 -65 -9 -141 -6 -119 -4 -138 9 -143 9 -3 51 0 93 6 43 7 96 13 118 14 l40 1 0 -135 c0 -74 -3 -227 -6 -340 -4 -113 -4 -167 -2 -120 4 88 13 111 35 92 13 -10 15 -62 10 -214 -2 -55 -3 -58 -27 -58 -23 0 -25 -4 -25 -44 0 -37 4 -45 23 -50 29 -8 201 -8 221 0 14 5 16 30 16 169 0 90 4 166 9 169 4 3 11 126 15 273 9 326 -3 303 156 303 89 0 109 3 114 16 3 9 6 57 6 108 0 94 -8 118 -39 114 -9 0 -182 -5 -385 -9z m-275 -194 c0 -5 -12 -11 -26 -13 -18 -2 -25 1 -25 13 0 12 7 15 25 13 14 -2 26 -7 26 -13z"/> <path d="M8395 3799 c-159 -3 -327 -7 -372 -8 -96 -1 -90 10 -98 -169 -7 -133 -10 -130 103 -113 42 7 96 14 120 18 l42 5 0 -261 0 -261 24 6 23 5 -3 -93 c-2 -51 -5 -104 -7 -118 -2 -14 -5 -33 -5 -42 -1 -9 -11 -20 -22 -23 -15 -5 -20 -15 -20 -39 0 -52 14 -57 141 -54 l114 3 7 185 c3 102 11 235 17 295 5 61 10 175 11 255 0 80 5 152 10 160 7 12 38 16 132 20 l123 5 3 111 c3 109 2 112 -20 118 -13 3 -25 5 -28 4 -3 -1 -135 -5 -295 -9z m-342 -194 c4 -8 2 -17 -3 -20 -11 -7 -60 5 -60 14 0 24 55 29 63 6z"/> <path d="M9135 3794 c-168 -20 -225 -30 -237 -42 -6 -6 -14 -84 -19 -184 -4 -95 -13 -225 -18 -288 -10 -108 -29 -373 -38 -537 l-5 -73 126 0 125 0 3 160 c3 180 6 188 77 197 45 6 57 -2 87 -62 8 -16 28 -52 44 -80 17 -27 42 -75 56 -105 53 -111 59 -120 73 -120 13 0 81 37 91 50 3 4 26 19 53 34 68 40 71 49 30 125 -20 36 -39 71 -43 76 -4 6 -11 21 -15 35 -4 14 -19 42 -32 63 -49 78 -49 80 20 156 59 66 97 138 97 185 0 10 8 40 17 66 16 45 16 52 -1 130 -45 209 -149 255 -491 214z m228 -246 c9 -11 17 -31 17 -45 0 -39 -49 -131 -84 -159 -39 -31 -132 -66 -166 -62 l-25 3 3 115 c3 137 9 147 104 166 77 15 127 10 151 -18z m-383 -199 c0 -11 -4 -17 -10 -14 -5 3 -10 13 -10 21 0 8 5 14 10 14 6 0 10 -9 10 -21z m358 -87 c4 -24 -7 -29 -26 -10 -18 18 -15 40 6 36 9 -2 18 -13 20 -26z m33 -47 c-1 -15 -24 -12 -29 3 -3 9 2 13 12 10 10 -1 17 -7 17 -13z"/> <path d="M1975 3794 c-16 -3 -44 -12 -62 -20 -17 -7 -36 -14 -42 -14 -20 0 -118 -107 -138 -151 -43 -91 -52 -172 -31 -273 13 -68 56 -118 158 -183 36 -23 70 -46 75 -50 6 -5 27 -19 47 -32 82 -50 109 -141 55 -187 -46 -40 -108 -34 -217 22 -50 25 -96 44 -103 41 -15 -5 -87 -147 -87 -169 0 -8 28 -28 63 -45 137 -67 140 -68 297 -68 131 0 149 2 192 23 63 31 99 70 137 147 27 57 31 75 31 149 0 47 -4 87 -9 91 -5 3 -12 18 -16 33 -9 45 -82 119 -174 179 -148 96 -180 140 -167 227 8 53 37 86 75 86 41 0 55 -24 61 -104 l5 -71 115 0 115 0 0 111 c-1 140 -15 176 -88 224 -49 32 -56 34 -157 36 -58 1 -118 0 -135 -2z m175 -602 c0 -13 -12 -22 -22 -16 -10 6 -1 24 13 24 5 0 9 -4 9 -8z m98 -288 c4 -27 -21 -47 -48 -39 -38 12 -16 69 25 63 11 -2 21 -12 23 -24z"/> <path d="M4060 3794 c-14 -2 -43 -9 -65 -15 -22 -5 -65 -14 -95 -19 -30 -4 -77 -14 -105 -22 -47 -12 -50 -15 -57 -53 -4 -22 -12 -169 -18 -327 -6 -158 -14 -344 -19 -415 -4 -70 -7 -130 -4 -132 11 -14 28 28 37 94 21 149 49 72 44 -122 -2 -95 0 -124 10 -128 18 -7 83 -6 120 1 l30 6 4 154 c2 88 8 158 14 164 6 6 28 13 50 16 67 9 207 51 274 83 61 28 90 51 129 104 70 95 76 117 76 262 -1 125 -2 132 -32 192 -35 68 -49 85 -106 128 -35 26 -45 28 -150 31 -61 1 -123 1 -137 -2z m135 -253 c30 -24 33 -31 40 -81 11 -89 -22 -141 -119 -184 -68 -31 -121 -39 -137 -20 -8 10 -10 51 -7 139 3 69 8 128 11 131 3 3 23 10 44 16 114 29 131 29 168 -1z m-35 -446 c0 -13 -4 -27 -10 -30 -11 -7 -25 39 -15 55 10 16 25 2 25 -25z"/> <path d="M10480 3790 c-25 -4 -81 -15 -125 -24 -44 -9 -104 -22 -132 -27 l-53 -11 -1 -56 c0 -32 -5 -124 -10 -207 -25 -395 -28 -850 -4 -620 4 39 13 77 20 85 7 8 15 24 17 35 2 11 8 18 13 15 6 -3 10 -68 10 -160 0 -92 4 -158 10 -162 17 -13 122 -9 133 5 5 6 14 79 20 162 12 164 16 175 77 175 40 0 204 52 273 86 51 26 125 97 143 139 5 11 13 27 18 35 5 8 17 38 25 67 46 151 -18 360 -133 437 -41 28 -52 30 -150 32 -58 1 -126 -1 -151 -6z m126 -236 c42 -20 61 -53 70 -123 7 -52 6 -53 -35 -92 -55 -53 -133 -89 -193 -89 l-48 0 0 65 c0 35 5 98 11 139 l11 75 52 15 c28 8 60 16 71 19 11 3 22 5 23 6 2 0 19 -6 38 -15z m34 -362 c0 -13 -12 -22 -22 -16 -10 6 -1 24 13 24 5 0 9 -4 9 -8z m-400 -27 c0 -8 -4 -15 -10 -15 -5 0 -10 7 -10 15 0 8 5 15 10 15 6 0 10 -7 10 -15z m349 -53 c7 -13 6 -23 -1 -30 -19 -19 -28 -14 -28 18 0 34 14 39 29 12z"/> <path d="M11375 3794 c-16 -3 -44 -12 -62 -20 -17 -7 -35 -14 -41 -14 -23 0 -111 -100 -142 -164 -33 -65 -35 -74 -34 -170 0 -149 15 -173 187 -290 38 -25 72 -46 76 -46 5 0 29 -20 55 -44 43 -41 46 -48 46 -95 0 -42 -4 -53 -26 -70 -34 -27 -105 -27 -159 -1 -22 11 -43 19 -48 20 -4 0 -25 11 -47 25 -22 14 -46 25 -55 25 -14 0 -72 -99 -87 -149 -9 -32 0 -42 64 -73 130 -62 133 -63 288 -63 131 0 149 2 192 23 56 28 110 85 140 149 19 40 23 65 23 148 0 98 -1 101 -36 155 -46 70 -74 95 -181 164 -53 34 -100 73 -119 99 -27 37 -30 48 -27 95 5 61 36 102 77 102 48 0 56 -13 59 -100 l4 -80 114 0 c114 0 115 0 124 26 14 37 12 95 -6 177 -17 77 -36 105 -98 144 -35 23 -52 26 -145 28 -58 2 -119 1 -136 -1z m293 -881 c2 -7 -2 -13 -8 -13 -7 0 -20 -10 -29 -22 -10 -12 -23 -18 -29 -14 -13 8 -16 48 -5 60 11 11 66 2 71 -11z"/> <path d="M9780 3435 c-3 -131 -1 -157 10 -169 11 -11 10 202 0 246 -6 23 -9 0 -10 -77z"/> <path d="M5731 3393 c-1 -79 3 -143 8 -143 11 0 11 237 0 265 -4 11 -8 -41 -8 -122z"/> <path d="M3338 3294 c-5 -4 -8 -37 -7 -73 0 -54 2 -61 10 -41 11 27 8 126 -3 114z"/> <path d="M3691 2728 c-1 -56 2 -68 15 -68 12 0 14 5 8 18 -4 9 -10 40 -14 67 l-7 50 -2 -67z"/> <path d="M2640 1960 l0 -90 73 0 c135 1 176 22 177 91 0 61 -56 89 -182 89 l-68 0 0 -90z m147 49 c15 -5 31 -16 35 -22 24 -38 -13 -87 -66 -87 -57 0 -66 8 -66 56 0 59 33 78 97 53z"/> <path d="M2979 2027 c-28 -19 -35 -30 -37 -63 -2 -32 2 -44 23 -64 23 -22 36 -25 95 -25 54 0 75 4 97 21 31 23 42 78 20 104 -44 54 -138 67 -198 27z m142 -46 c21 -53 -32 -98 -86 -73 -47 21 -41 97 7 104 42 6 69 -4 79 -31z"/> <path d="M3257 2043 c-4 -3 -7 -41 -7 -84 0 -69 2 -78 20 -84 30 -10 40 2 40 49 0 71 19 74 71 11 31 -38 53 -56 76 -61 59 -11 64 -4 61 88 -3 81 -4 83 -28 83 -23 0 -25 -4 -28 -47 -2 -26 -10 -52 -18 -59 -13 -11 -20 -8 -46 22 -74 85 -78 89 -106 89 -16 0 -32 -3 -35 -7z"/> <path d="M3630 2037 c0 -7 15 -17 33 -22 31 -10 32 -12 35 -67 3 -58 20 -85 46 -75 11 4 16 25 18 68 3 62 7 70 51 83 43 13 -1 26 -89 26 -70 0 -94 -3 -94 -13z"/> <path d="M4115 2028 c-2 -13 -6 -43 -7 -68 -3 -39 -7 -46 -30 -54 -23 -8 -34 -6 -58 12 -37 28 -60 28 -60 1 0 -29 61 -52 124 -46 70 6 97 41 94 117 -3 52 -5 55 -30 58 -22 3 -28 -2 -33 -20z"/> <path d="M4230 1982 c0 -92 15 -107 110 -107 95 0 110 15 110 107 0 66 -1 69 -22 66 -18 -2 -24 -10 -26 -38 -6 -79 -25 -110 -66 -110 -34 0 -50 26 -56 89 -4 49 -8 56 -27 59 -22 3 -23 0 -23 -66z"/> <path d="M4533 2029 c-18 -12 -33 -28 -33 -36 0 -28 43 -52 93 -53 33 0 47 -4 47 -14 0 -19 -21 -25 -67 -19 -48 6 -67 -12 -28 -27 62 -24 151 -4 161 36 9 37 -12 54 -67 54 -48 0 -73 15 -49 30 7 5 28 6 46 3 18 -3 41 -2 51 1 16 7 15 9 -7 26 -34 27 -105 26 -147 -1z"/> <path d="M4770 2035 c0 -8 8 -15 18 -15 30 0 42 -21 42 -76 0 -99 62 -102 68 -3 3 59 15 79 43 79 11 0 19 7 19 15 0 12 -17 15 -95 15 -78 0 -95 -3 -95 -15z"/> <path d="M5100 1959 l0 -92 99 5 c126 6 151 20 151 82 0 69 -49 96 -176 96 l-74 0 0 -91z m147 50 c47 -18 57 -55 23 -89 -23 -23 -88 -28 -108 -8 -7 7 -12 29 -12 50 0 53 35 71 97 47z"/> <path d="M5425 2041 c-10 -18 -13 -146 -3 -158 16 -20 37 -15 50 12 9 21 18 25 53 25 31 0 47 -6 65 -25 37 -39 74 -28 48 14 -10 16 -10 23 0 33 6 6 12 26 12 44 0 28 -5 34 -40 48 -44 17 -175 22 -185 7z m150 -35 c33 -24 12 -46 -44 -46 -52 0 -65 11 -49 43 11 21 66 23 93 3z"/> <path d="M5724 2037 c-3 -8 -4 -47 -2 -88 l3 -74 98 -3 c81 -2 97 0 97 12 0 12 -16 16 -67 18 -60 3 -68 5 -68 23 0 17 8 21 55 24 l55 5 -55 5 c-47 5 -55 9 -58 28 -4 25 11 31 88 35 81 5 48 23 -48 26 -71 2 -94 0 -98 -11z"/> <path d="M6079 2033 c-36 -45 -89 -131 -89 -147 0 -13 5 -16 23 -10 12 3 29 13 38 20 24 22 111 18 142 -6 27 -21 43 -25 51 -12 3 5 -18 44 -47 88 -57 85 -88 103 -118 67z m61 -52 c14 -26 13 -38 -4 -44 -22 -9 -56 4 -56 21 0 14 27 41 42 42 4 0 12 -9 18 -19z"/> <path d="M6327 2043 c-9 -8 -9 -136 -1 -157 3 -9 15 -16 25 -16 14 0 19 7 19 28 0 40 11 72 24 72 7 0 25 -20 40 -45 28 -44 56 -62 76 -50 5 3 22 26 36 51 18 30 31 43 41 40 8 -3 17 -6 19 -6 2 0 4 -18 4 -39 0 -31 4 -41 21 -46 33 -11 40 6 37 91 -3 67 -6 79 -21 82 -41 8 -66 -8 -97 -62 -30 -53 -70 -82 -78 -57 -2 6 -9 17 -15 24 -7 6 -24 31 -40 55 -21 33 -33 42 -55 42 -16 0 -32 -3 -35 -7z"/> <path d="M6810 1960 c0 -89 1 -91 23 -88 21 3 22 7 22 88 0 81 -1 85 -22 88 -22 3 -23 1 -23 -88z"/> <path d="M6930 2035 c0 -8 8 -15 18 -15 30 0 42 -21 42 -76 0 -99 62 -102 68 -3 3 59 15 79 43 79 11 0 19 7 19 15 0 12 -17 15 -95 15 -78 0 -95 -3 -95 -15z"/> <path d="M7488 2029 c-33 -25 -35 -42 -8 -69 14 -14 33 -20 64 -20 25 0 47 -4 51 -9 10 -17 -26 -28 -77 -23 -40 4 -50 2 -46 -9 9 -27 101 -37 157 -18 29 10 32 15 29 48 -3 36 -3 36 -53 39 -69 4 -80 8 -65 27 8 10 25 12 59 8 58 -7 75 9 32 32 -43 22 -110 19 -143 -6z"/> <path d="M7737 2043 c-9 -8 -9 -136 -1 -157 9 -24 29 -19 63 15 35 34 49 33 108 -7 20 -13 42 -24 49 -24 26 0 14 27 -21 51 -19 13 -35 29 -35 35 0 7 21 30 48 53 44 38 46 40 21 41 -14 0 -51 -18 -83 -40 -31 -22 -65 -40 -76 -40 -14 0 -20 10 -25 40 -5 29 -12 40 -24 40 -10 0 -21 -3 -24 -7z"/> <path d="M8077 2044 c-4 -4 -7 -43 -7 -86 0 -64 3 -80 16 -85 37 -14 49 10 49 93 0 77 -1 79 -25 82 -14 2 -29 0 -33 -4z"/> <path d="M8216 2042 c-8 -13 -10 -148 -2 -161 13 -20 44 -12 50 13 5 20 14 25 58 31 29 3 68 11 86 16 28 9 32 15 32 44 0 29 -5 35 -40 49 -42 17 -175 22 -184 8z m152 -38 c34 -24 12 -44 -48 -44 -51 0 -64 12 -48 43 11 22 65 23 96 1z"/> <path d="M8490 2035 c0 -8 9 -15 21 -15 44 0 59 -18 59 -70 0 -61 7 -80 31 -80 17 0 19 8 19 59 0 66 15 91 56 91 15 0 24 6 24 15 0 12 -18 15 -105 15 -87 0 -105 -3 -105 -15z"/> <path d="M8827 2044 c-4 -4 -7 -40 -7 -79 0 -77 12 -100 47 -93 16 3 18 14 18 88 0 84 0 85 -25 88 -14 2 -29 0 -33 -4z"/> <path d="M8940 2035 c0 -8 9 -15 21 -15 44 0 59 -18 59 -70 0 -61 7 -80 31 -80 17 0 19 8 19 59 0 66 15 91 56 91 15 0 24 6 24 15 0 12 -18 15 -105 15 -87 0 -105 -3 -105 -15z"/> <path d="M9320 2035 c0 -8 9 -15 19 -15 36 0 51 -27 51 -91 0 -57 1 -60 23 -57 20 3 22 9 25 63 3 65 17 85 59 85 14 0 23 6 23 15 0 12 -18 15 -100 15 -82 0 -100 -3 -100 -15z"/> <path d="M9586 2042 c-8 -13 -10 -148 -2 -161 13 -20 46 -12 56 14 8 21 16 25 51 25 32 0 47 -6 65 -25 13 -14 30 -25 39 -25 17 0 21 35 4 45 -7 5 -5 15 5 31 27 41 20 63 -26 84 -44 20 -182 28 -192 12z m155 -42 c21 -17 22 -21 9 -30 -24 -16 -100 -12 -106 5 -16 42 56 60 97 25z"/> <path d="M9887 2044 c-4 -4 -7 -42 -7 -85 0 -70 2 -78 21 -84 33 -11 40 6 37 91 -3 71 -5 79 -23 82 -12 2 -24 0 -28 -4z"/> <path d="M10014 2037 c-3 -8 -4 -47 -2 -88 3 -67 5 -74 24 -77 16 -2 23 4 28 21 5 20 14 25 53 30 78 10 121 26 128 47 10 32 -11 57 -59 69 -64 16 -165 14 -172 -2z m151 -29 c28 -13 33 -33 9 -42 -32 -12 -104 -6 -110 9 -15 38 46 58 101 33z"/> <path d="M10380 1960 c0 -89 1 -91 23 -88 21 3 22 7 22 88 0 81 -1 85 -22 88 -22 3 -23 1 -23 -88z"/> <path d="M10500 2035 c0 -8 8 -15 18 -15 36 0 47 -18 47 -76 0 -60 16 -83 49 -71 12 5 16 20 16 65 0 60 11 82 42 82 10 0 18 7 18 15 0 12 -17 15 -95 15 -78 0 -95 -3 -95 -15z"/> <path d="M10827 2043 c-9 -8 -9 -96 -1 -117 12 -32 24 -3 24 60 0 59 -6 74 -23 57z"/> <path d="M7278 1953 c12 -2 30 -2 40 0 9 3 -1 5 -23 4 -22 0 -30 -2 -17 -4z"/> </g> </svg> 