 <svg  version="1.0" xmlns="http://www.w3.org/2000/svg"  width="900.000000pt" height="696.000000pt" viewBox="0 0 900.000000 696.000000"  preserveAspectRatio="xMidYMid meet">  <g transform="translate(0.000000,696.000000) scale(0.100000,-0.100000)" fill="#e24a01" stroke="none"> <path d="M3620 6821 c-9 -5 -64 -65 -123 -133 -105 -121 -267 -279 -398 -389 -107 -90 -177 -165 -198 -211 -69 -153 -81 -180 -81 -184 0 -2 -27 -60 -60 -128 -44 -90 -71 -133 -98 -156 -89 -74 -101 -101 -62 -140 31 -31 59 -16 260 141 179 142 211 169 204 180 -3 5 -16 9 -29 9 -33 0 -58 36 -43 64 27 52 484 466 514 466 33 0 -2 -88 -78 -195 -41 -57 -43 -64 -46 -141 l-4 -81 -83 -105 c-46 -58 -88 -116 -95 -128 l-12 -23 28 20 c53 38 101 92 189 213 39 54 133 165 156 186 45 39 126 84 152 84 14 0 47 -9 74 -21 62 -27 165 -50 177 -38 6 5 5 24 -2 47 -18 58 -16 142 3 142 8 0 15 -4 15 -9 0 -5 6 -16 13 -23 7 -7 37 -53 66 -103 33 -55 79 -114 117 -152 67 -64 148 -123 170 -123 33 0 18 26 -62 112 -90 97 -137 169 -168 253 -28 76 -71 142 -150 230 -40 44 -83 96 -96 115 -13 19 -31 41 -38 49 -8 8 -24 30 -37 50 -66 100 -134 147 -175 122z"/> <path d="M4884 6393 c-98 -131 -201 -269 -231 -308 -102 -135 -210 -251 -323 -348 -108 -93 -212 -189 -236 -219 -17 -22 -51 -88 -69 -138 -9 -25 -21 -53 -26 -63 -65 -124 -113 -198 -176 -274 -33 -40 -64 -62 -136 -98 -83 -41 -96 -52 -135 -108 -84 -122 -143 -219 -137 -225 3 -4 54 42 113 101 68 68 133 123 178 150 72 42 210 132 252 163 25 19 29 46 7 64 -25 21 -18 66 18 107 17 21 82 90 142 153 61 63 162 169 225 235 134 139 163 165 183 165 30 0 24 -41 -24 -145 -27 -58 -47 -111 -43 -116 3 -6 65 48 138 119 140 139 244 232 258 232 30 0 -11 -73 -137 -245 -24 -33 -69 -98 -101 -145 -31 -47 -65 -98 -76 -113 -19 -27 -19 -40 -4 -78 7 -17 -45 -100 -145 -230 -32 -42 -55 -79 -52 -82 4 -5 114 106 253 255 160 172 362 368 380 368 11 0 20 -5 20 -11 0 -21 -129 -251 -177 -315 -13 -17 -23 -34 -23 -39 0 -4 -13 -30 -30 -56 -16 -27 -26 -49 -22 -49 5 0 35 30 68 67 32 36 92 100 133 142 171 176 253 274 247 295 -13 48 -28 197 -22 220 4 15 14 26 23 26 24 0 142 -81 225 -155 89 -79 103 -82 82 -17 -8 26 -20 63 -25 82 -6 19 -16 49 -23 65 -31 73 -66 197 -66 236 0 12 9 21 26 25 22 6 36 -5 117 -91 126 -134 134 -147 147 -235 12 -74 12 -76 73 -132 34 -32 65 -58 68 -58 3 0 24 -19 47 -42 44 -44 99 -165 88 -193 -3 -8 -17 -15 -31 -15 -14 0 -25 -4 -25 -8 0 -13 110 -105 118 -98 3 4 0 21 -6 39 -16 45 -16 47 12 47 15 0 45 -19 80 -51 53 -48 76 -55 76 -23 0 28 42 13 113 -39 124 -91 136 -97 142 -86 8 12 -3 26 -110 137 -44 46 -100 95 -125 109 -141 81 -160 103 -317 352 -198 315 -229 354 -497 636 -279 292 -282 295 -304 295 -16 0 -65 -59 -198 -237z"/> <path d="M3700 6023 c-57 -22 -274 -221 -437 -402 -53 -58 -106 -115 -118 -126 -28 -26 -188 -205 -200 -224 -11 -19 80 44 97 67 7 9 36 37 63 61 28 24 75 67 105 95 74 70 157 129 170 121 23 -14 -2 -86 -59 -170 -49 -71 -16 -60 93 33 146 125 176 142 176 100 0 -19 -18 -54 -98 -190 -40 -68 -14 -56 68 32 93 99 159 195 184 265 25 68 43 95 65 95 10 0 56 -39 102 -86 52 -52 85 -80 87 -71 2 8 -41 82 -96 163 -54 82 -108 166 -121 187 -19 31 -50 59 -63 56 -2 0 -10 -3 -18 -6z"/> <path d="M2355 5561 c-11 -5 -49 -42 -85 -82 -84 -96 -202 -214 -265 -264 -135 -109 -284 -242 -416 -373 -160 -159 -192 -182 -291 -213 -73 -23 -90 -41 -152 -158 -34 -63 -114 -187 -137 -211 -19 -20 -79 -107 -79 -114 0 -3 45 39 100 94 55 55 118 109 140 120 24 12 45 33 55 54 9 18 26 43 38 54 20 18 204 155 257 192 12 8 33 23 45 33 27 20 49 22 63 4 8 -9 2 -39 -22 -108 -42 -118 -58 -150 -103 -200 -35 -38 -40 -60 -10 -42 45 26 282 243 282 258 0 6 -10 11 -22 13 -37 5 -46 26 -28 63 20 37 188 208 295 299 41 35 77 67 80 70 3 3 32 29 66 58 58 50 86 62 98 43 6 -9 -35 -107 -75 -182 -13 -25 -20 -64 -23 -118 -5 -87 -10 -97 -94 -215 -18 -25 -29 -46 -23 -46 5 0 49 39 98 86 108 105 130 122 216 168 70 37 107 45 107 24 0 -14 -64 -124 -86 -148 -7 -8 -35 -40 -62 -71 -53 -60 -116 -119 -174 -162 -20 -15 -42 -32 -50 -39 -7 -7 -29 -26 -48 -42 -19 -16 -30 -27 -25 -25 40 18 65 33 65 41 0 4 4 8 10 8 10 0 388 272 488 351 30 24 75 53 100 66 26 13 50 32 54 41 12 31 8 162 -6 197 -8 19 -45 74 -83 124 -37 49 -92 132 -122 184 -56 100 -119 177 -142 176 -8 0 -23 -4 -34 -8z"/> <path d="M5208 5417 c-31 -32 -81 -93 -138 -168 -14 -19 -47 -61 -75 -94 -72 -87 -140 -177 -153 -202 -7 -12 -12 -37 -12 -55 0 -27 -10 -42 -62 -92 -35 -32 -75 -66 -89 -75 -15 -9 -51 -37 -80 -63 -30 -25 -65 -55 -79 -66 -14 -11 -23 -22 -20 -25 9 -8 43 11 120 68 41 31 88 63 104 73 15 9 47 32 70 50 46 36 43 34 109 82 96 70 124 93 216 178 52 48 106 97 119 110 46 41 31 49 362 -176 85 -58 180 -123 210 -144 30 -21 80 -55 110 -75 30 -20 89 -59 130 -86 83 -56 182 -109 189 -102 2 3 2 6 0 8 -54 36 -132 117 -171 176 -27 42 -60 87 -71 100 -19 20 -152 90 -174 91 -4 1 -26 9 -48 20 -22 11 -44 19 -49 20 -5 0 -28 16 -52 36 -45 36 -94 124 -109 195 -10 48 -47 121 -84 167 -36 47 -119 82 -192 82 -42 0 -53 -5 -81 -33z"/> <path d="M6948 5402 c-15 -9 -55 -42 -90 -74 -48 -43 -81 -62 -137 -82 -94 -33 -135 -64 -180 -138 -77 -126 -130 -201 -187 -266 -84 -94 -108 -128 -101 -146 4 -9 10 -16 14 -16 4 0 42 33 83 72 142 135 219 198 244 198 15 0 48 23 91 63 37 34 85 78 107 97 22 19 58 52 81 72 55 49 85 49 129 1 222 -244 473 -492 485 -480 3 4 -1 15 -10 25 -10 10 -17 22 -17 26 0 3 -34 50 -75 104 -70 91 -90 132 -64 132 16 0 126 -65 179 -105 25 -19 56 -43 70 -52 14 -9 51 -37 82 -62 60 -48 70 -71 43 -101 -17 -19 -25 -11 115 -114 67 -49 167 -108 238 -139 56 -26 66 -27 99 -16 38 12 34 14 155 -48 14 -7 34 -13 45 -13 53 1 -158 132 -232 145 -22 4 -57 13 -78 21 -54 20 -179 127 -207 176 -33 58 -57 84 -115 123 -27 18 -115 100 -195 182 -80 82 -201 194 -270 248 -69 54 -143 113 -165 130 -75 60 -95 65 -137 37z"/> <path d="M5359 4925 c-19 -13 -45 -32 -59 -42 -14 -9 -57 -44 -96 -78 -39 -33 -86 -73 -105 -89 -43 -36 -157 -110 -228 -148 -120 -64 -304 -230 -253 -228 4 0 21 14 37 31 55 57 139 115 250 174 61 32 150 86 199 119 48 34 95 66 105 71 9 6 42 27 73 48 31 20 67 37 79 37 21 0 64 -26 267 -161 152 -103 158 -89 12 30 -76 62 -110 104 -151 183 -42 83 -72 95 -130 53z"/> <path d="M2709 4789 c-24 -28 -79 -87 -122 -132 -106 -112 -153 -175 -161 -217 -5 -26 -23 -50 -69 -92 -41 -38 -56 -57 -44 -58 9 0 17 4 17 8 0 5 19 19 43 32 23 13 89 61 147 107 58 46 130 103 160 127 31 25 68 48 83 51 31 8 78 -18 213 -118 199 -147 303 -221 351 -251 29 -17 -2 21 -47 59 -26 22 -69 58 -95 80 -58 49 -122 145 -158 241 -33 85 -78 158 -107 174 -32 17 -112 40 -141 40 -20 0 -38 -14 -70 -51z"/> <path d="M6782 4628 c-34 -34 -59 -64 -56 -67 4 -3 9 0 11 7 3 6 9 12 13 12 5 0 31 14 57 30 34 22 59 30 92 30 l46 1 -30 24 c-45 37 -65 32 -133 -37z"/> <path d="M2723 4381 c-56 -42 -115 -89 -131 -103 -16 -14 -48 -37 -71 -50 -36 -20 -52 -38 -35 -38 13 0 121 65 206 125 95 66 134 79 158 50 6 -8 22 -17 33 -21 12 -4 38 -19 57 -33 19 -15 52 -35 73 -46 20 -11 37 -23 37 -27 0 -5 8 -8 18 -8 15 1 15 2 -3 16 -48 35 -120 113 -151 162 -47 73 -63 71 -191 -27z"/> <path d="M2438 4183 c-10 -2 -18 -8 -18 -13 0 -5 -9 -12 -21 -15 -11 -4 -18 -9 -15 -12 8 -8 76 26 76 37 0 6 -1 9 -2 9 -2 -1 -11 -3 -20 -6z"/> <path d="M5196 3797 c-15 -15 -28 -45 -36 -83 -21 -108 -42 -199 -51 -216 -5 -10 -9 -29 -9 -42 0 -13 -12 -78 -26 -143 -15 -65 -32 -147 -39 -183 -30 -146 -45 -218 -61 -285 -9 -38 -21 -95 -28 -125 -9 -44 -15 -55 -31 -55 -24 0 -32 33 -40 165 -4 52 -11 115 -16 140 -5 25 -13 90 -19 145 -42 417 -49 453 -109 541 -39 57 -58 74 -110 102 l-63 32 -181 0 c-100 0 -220 -4 -267 -10 -76 -8 -88 -13 -112 -40 -15 -16 -30 -42 -33 -57 -4 -16 -18 -73 -32 -128 -14 -55 -31 -127 -38 -160 -19 -91 -64 -276 -74 -310 -6 -16 -13 -48 -16 -70 -4 -22 -13 -60 -20 -85 -7 -25 -20 -81 -30 -125 -10 -44 -21 -91 -26 -105 -4 -14 -11 -41 -14 -60 -3 -19 -10 -46 -15 -60 -5 -14 -11 -42 -15 -62 -17 -103 -57 29 -70 227 -3 50 -10 131 -16 180 -5 50 -14 162 -19 250 -27 453 -39 534 -87 554 -28 11 -343 2 -606 -18 -121 -9 -150 -25 -161 -84 -8 -47 23 -621 44 -802 10 -90 35 -461 51 -755 10 -187 25 -390 39 -525 6 -55 15 -192 21 -305 5 -113 14 -236 19 -275 5 -38 9 -110 9 -159 1 -50 5 -115 11 -145 5 -31 16 -162 25 -291 18 -260 22 -275 86 -296 24 -8 155 -12 429 -10 355 1 399 3 422 18 27 18 58 69 58 96 0 23 57 261 120 497 12 44 28 107 35 140 26 114 45 190 61 245 8 30 20 80 25 110 11 58 23 80 45 80 20 0 24 -25 35 -225 16 -283 19 -308 48 -315 34 -8 36 -24 6 -44 -30 -20 -33 -59 -10 -168 9 -40 13 -83 10 -95 -7 -30 13 -252 26 -284 21 -53 31 -54 443 -54 343 0 384 2 413 17 34 19 47 48 69 153 7 33 20 89 29 125 9 36 22 99 30 140 7 41 22 113 33 160 11 47 30 130 42 185 12 55 30 136 41 180 11 44 26 112 34 150 7 39 21 102 29 140 9 39 30 133 46 210 16 77 37 167 46 200 8 33 19 83 24 110 8 45 27 133 65 300 8 33 17 74 20 90 7 37 41 188 61 271 8 33 14 70 14 82 0 11 4 23 9 26 4 3 11 33 15 67 4 33 11 70 16 82 5 12 18 67 30 122 11 55 31 147 45 205 13 58 31 141 40 185 9 44 30 135 46 202 l30 122 -21 40 c-25 50 -47 58 -390 127 -41 8 -84 18 -95 20 -98 25 -160 37 -217 41 -61 4 -69 2 -92 -20z m-1796 -552 c0 -8 -6 -15 -14 -15 -17 0 -28 14 -19 24 12 12 33 6 33 -9z m914 -1674 c9 -15 -23 -36 -36 -23 -5 5 -7 15 -4 21 9 13 33 14 40 2z m116 -26 c10 -12 9 -16 -5 -21 -19 -8 -40 9 -31 25 10 15 21 14 36 -4z m145 -4 c8 -14 -10 -22 -30 -15 -13 5 -14 8 -3 15 17 11 26 11 33 0z m291 -62 c3 -6 2 -15 -4 -21 -15 -15 15 -58 39 -58 22 0 49 -36 49 -66 0 -23 -17 -34 -52 -34 -28 0 -122 96 -114 116 3 9 6 18 6 20 0 2 7 4 15 4 17 0 20 16 5 25 -6 4 -8 11 -5 16 8 13 52 11 61 -2z m74 -39 c0 -27 -17 -34 -29 -12 -7 13 -7 22 1 30 15 15 28 6 28 -18z m257 -12 c19 -16 16 -46 -6 -58 -31 -16 -57 -12 -91 16 -23 20 -28 29 -20 40 21 24 89 26 117 2z m-448 -54 c12 -15 21 -32 21 -39 0 -7 6 -16 13 -19 58 -29 72 -44 69 -73 -4 -43 19 -59 65 -45 28 9 43 8 70 -3 35 -15 36 -21 5 -58 -18 -21 -17 -23 29 -31 31 -5 38 -3 57 24 30 40 77 42 94 4 11 -24 10 -29 -15 -48 -34 -27 -36 -50 -4 -40 43 14 52 10 52 -21 0 -25 -3 -30 -22 -27 -27 4 -29 -3 -7 -25 8 -9 14 -25 12 -37 -2 -17 -10 -21 -38 -21 -30 0 -37 5 -50 32 -8 18 -23 33 -32 33 -10 0 -18 -1 -18 -2 0 -2 7 -21 14 -43 11 -31 20 -41 40 -43 14 -2 31 -12 37 -23 22 -43 -15 -79 -82 -79 -29 0 -41 -22 -19 -35 6 -3 10 -18 10 -33 0 -20 9 -32 30 -44 42 -24 47 -44 20 -74 -25 -26 -59 -31 -78 -12 -9 9 -9 15 0 26 10 11 4 21 -30 52 -48 44 -49 50 -23 74 16 15 17 22 8 47 -15 39 0 62 43 69 49 7 49 28 1 26 -47 -1 -63 11 -55 41 4 16 15 23 38 25 38 4 44 33 6 33 -42 0 -80 31 -80 65 0 17 -4 30 -8 30 -5 0 -19 20 -31 45 l-22 45 -29 -15 c-37 -19 -64 -19 -81 1 -11 14 -10 18 6 30 10 8 25 14 32 14 7 0 13 3 13 6 0 17 -47 62 -88 84 -41 22 -47 30 -45 55 1 16 5 35 7 42 9 22 43 15 65 -13z m-212 -266 c15 -24 15 -27 0 -43 -21 -20 -22 -68 -3 -85 21 -16 9 -40 -20 -40 -30 0 -40 23 -26 55 8 16 8 35 1 60 -21 75 13 112 48 53z m171 26 c47 -13 19 -64 -35 -64 -31 0 -33 2 -33 35 0 30 3 35 23 35 12 0 32 -3 45 -6z m-8 -114 c0 -23 -25 -27 -33 -6 -7 16 1 26 20 26 7 0 13 -9 13 -20z m-280 -30 c0 -5 -7 -10 -15 -10 -8 0 -15 5 -15 10 0 6 7 10 15 10 8 0 15 -4 15 -10z m366 -45 c4 -9 17 -14 33 -13 36 2 71 -11 71 -26 0 -7 -18 -20 -40 -29 -46 -18 -51 -33 -16 -47 31 -11 45 -49 22 -62 -9 -5 -16 -18 -16 -29 0 -26 -59 -99 -80 -99 -18 0 -60 51 -60 73 0 7 18 28 41 46 22 18 38 38 36 44 -2 6 -18 17 -35 24 -28 11 -32 11 -32 -2 0 -18 -14 -19 -43 -4 -57 30 -73 77 -35 103 20 14 24 14 39 0 16 -14 18 -14 28 4 10 18 28 26 69 31 7 0 15 -6 18 -14z m-322 -81 c23 -9 21 -54 -3 -54 -21 0 -33 22 -25 45 7 17 7 17 28 9z m96 -124 c0 -10 5 -31 12 -45 16 -36 -1 -53 -38 -36 -19 8 -30 9 -38 1 -16 -16 -44 -12 -51 9 -8 28 2 44 43 68 47 28 72 29 72 3z m614 -9 c8 -13 -3 -38 -20 -45 -23 -9 -43 4 -37 22 11 29 45 43 57 23z m-416 -136 c13 -4 22 -2 22 5 0 14 46 31 65 24 21 -8 19 -53 -2 -60 -10 -3 -35 -13 -55 -21 -34 -14 -40 -14 -73 1 -39 19 -42 27 -20 46 8 7 15 20 15 28 0 14 1 14 13 0 6 -9 22 -19 35 -23z m230 -31 c-4 -21 57 -42 106 -36 30 3 37 1 34 -9 -3 -8 -18 -14 -34 -14 -23 -1 -30 -6 -32 -25 -5 -37 -40 -61 -69 -47 -18 8 -27 7 -41 -6 -23 -21 -62 -22 -62 -3 0 33 13 46 46 46 37 0 43 10 19 30 -8 7 -15 21 -15 31 0 10 -4 21 -10 24 -21 13 -9 25 25 25 27 0 35 -4 33 -16z m-134 -34 c19 -7 26 -17 26 -35 0 -25 -3 -26 -42 -23 -38 3 -43 6 -46 30 -2 19 2 28 15 31 10 3 19 5 20 6 1 0 13 -3 27 -9z m-434 -14 c0 -18 -27 -39 -40 -31 -5 3 -10 15 -10 26 0 14 7 19 25 19 15 0 25 -6 25 -14z m293 -59 c2 -21 8 -26 40 -30 70 -9 117 -61 67 -74 -31 -8 -23 -31 13 -38 51 -9 92 7 92 36 0 30 38 38 65 14 24 -22 51 -13 47 16 -1 16 6 24 28 32 17 5 38 17 48 25 27 24 53 4 49 -39 -4 -48 -19 -62 -63 -55 -47 8 -72 -17 -63 -61 5 -25 2 -33 -14 -42 -28 -15 -183 -13 -258 3 -81 17 -90 23 -69 46 19 21 8 53 -22 64 -16 7 -16 9 6 25 13 10 21 23 17 30 -12 18 -44 13 -51 -9 -8 -26 -26 -25 -48 0 -24 28 -21 40 8 40 18 0 28 7 35 24 20 54 70 49 73 -7z m-226 -38 c13 -13 6 -107 -8 -123 -14 -16 -41 15 -35 40 4 13 0 27 -9 34 -22 18 -18 39 8 50 30 12 31 12 44 -1z m88 -59 c0 -22 -39 -19 -43 3 -3 15 1 18 20 15 12 -2 23 -10 23 -18z"/> <path d="M8465 3810 c-110 -4 -411 -10 -670 -14 -258 -4 -591 -11 -740 -16 -148 -6 -351 -10 -450 -10 -288 0 -293 -2 -305 -136 -5 -49 -11 -173 -14 -275 -5 -179 -4 -187 14 -192 28 -7 25 -26 -5 -37 l-25 -10 0 -155 0 -156 27 -25 c24 -22 34 -25 83 -21 30 2 102 14 160 26 58 12 134 26 170 31 36 5 99 17 140 25 188 39 262 49 279 38 18 -12 18 9 0 -678 -12 -468 -16 -596 -29 -910 -6 -132 -15 -444 -20 -694 -9 -491 -9 -494 43 -523 17 -10 113 -13 396 -15 400 -1 425 1 455 50 28 45 28 75 1 99 -27 23 -33 66 -14 85 9 9 9 19 0 42 -15 35 -7 270 10 302 7 15 7 24 -1 34 -6 8 -9 23 -5 35 4 13 1 22 -9 26 -23 9 -20 51 4 64 16 9 18 15 10 30 -5 10 -8 25 -5 33 3 7 1 26 -5 41 -7 21 -7 32 1 42 12 15 15 76 4 93 -10 17 6 131 21 144 7 7 20 18 29 25 20 17 20 86 0 102 -8 7 -15 20 -15 30 0 10 7 23 15 30 12 10 15 36 15 114 0 55 4 164 9 241 6 77 12 295 16 485 3 190 10 423 16 518 6 95 8 184 5 197 -4 17 0 31 13 44 17 17 41 19 287 25 148 3 320 10 383 16 171 14 157 -19 165 384 4 183 4 345 0 360 -5 21 -18 33 -51 47 -49 21 -57 21 -408 9z m-1881 -636 c34 -34 8 -88 -39 -82 -42 4 -65 51 -39 79 21 23 57 25 78 3z m484 -12 c3 -18 -1 -22 -23 -22 -29 0 -45 27 -24 41 22 14 44 6 47 -19z m132 18 c0 -5 -7 -10 -15 -10 -8 0 -15 5 -15 10 0 6 7 10 15 10 8 0 15 -4 15 -10z m-490 -24 c0 -23 -49 -76 -71 -76 -5 0 -15 12 -21 26 -11 23 -9 28 12 44 22 17 35 22 73 29 4 0 7 -10 7 -23z m48 -108 c4 -32 -22 -50 -55 -37 -15 5 -23 17 -23 32 0 32 9 39 45 35 24 -2 31 -8 33 -30z m402 -13 c0 -16 -35 -21 -44 -6 -8 12 4 21 26 21 10 0 18 -7 18 -15z m-257 -9 c32 -8 37 -40 8 -56 -28 -14 -42 -13 -81 11 l-34 21 23 19 c13 11 31 18 40 15 9 -2 28 -7 44 -10z m-325 -14 c2 -7 -3 -12 -12 -12 -9 0 -16 7 -16 16 0 17 22 14 28 -4z m681 -1726 l23 -24 -22 -89 c-19 -81 -20 -94 -8 -148 10 -45 11 -91 4 -185 -5 -69 -8 -176 -7 -238 2 -122 -15 -194 -50 -212 -25 -14 -27 -13 -49 23 -22 36 -25 83 -9 141 8 28 7 46 -1 66 -9 21 -9 33 0 49 7 14 12 105 15 249 3 216 14 333 36 374 13 25 41 23 68 -6z"/> <path d="M1386 3774 c-66 -8 -153 -21 -193 -29 -67 -14 -204 -61 -246 -85 -10 -6 -44 -25 -75 -41 -246 -133 -472 -468 -549 -813 -21 -93 -28 -330 -13 -421 18 -104 47 -201 87 -285 28 -57 55 -94 117 -156 117 -116 297 -255 428 -328 146 -82 378 -240 439 -298 117 -112 158 -299 91 -419 -45 -82 -164 -135 -281 -126 -75 5 -209 47 -324 101 -43 20 -84 36 -91 36 -6 0 -21 6 -32 14 -11 8 -65 38 -120 67 -54 28 -110 58 -124 65 -14 8 -43 14 -66 14 -45 0 -59 -11 -92 -77 -11 -23 -25 -50 -31 -60 -9 -15 -44 -87 -169 -338 -14 -27 -27 -68 -29 -90 -6 -49 10 -70 87 -110 220 -114 263 -134 370 -175 30 -11 69 -27 85 -34 33 -15 107 -39 170 -55 183 -47 301 -63 460 -61 95 1 275 16 303 25 7 3 65 16 130 31 175 39 309 109 433 226 111 105 211 269 272 448 54 159 69 253 61 380 -6 90 -34 241 -53 285 -5 11 -24 54 -43 95 -62 140 -223 330 -385 453 -34 26 -65 47 -68 47 -4 0 -24 12 -44 28 -20 15 -45 32 -56 39 -225 135 -314 199 -427 306 -40 37 -100 135 -119 192 -22 68 -15 182 16 266 47 126 72 160 149 200 83 44 183 4 206 -81 5 -19 12 -128 16 -243 7 -198 8 -209 30 -232 15 -17 34 -25 56 -26 173 -2 680 2 692 7 8 3 22 17 32 32 15 22 17 60 18 296 1 195 -3 285 -12 321 -36 137 -56 203 -70 230 -36 73 -90 141 -154 195 -198 166 -495 228 -882 184z m404 -1923 c0 -5 12 -23 26 -40 21 -26 24 -34 14 -46 -18 -21 -50 -18 -77 7 -22 20 -31 67 -16 81 10 10 53 8 53 -2z m-195 -21 c0 -18 -33 -26 -47 -12 -6 6 -7 15 -3 22 10 16 50 8 50 -10z m109 -228 c8 -13 -11 -35 -23 -28 -16 10 -14 36 3 36 8 0 17 -4 20 -8z m301 -61 c3 -5 -5 -17 -17 -25 -23 -17 -48 -6 -48 20 0 16 55 20 65 5z m-47 -104 c2 -9 -4 -20 -13 -23 -20 -8 -50 19 -40 36 10 17 49 8 53 -13z m250 -124 c2 -24 -1 -33 -17 -38 -23 -7 -56 8 -64 29 -9 22 21 48 52 44 21 -2 27 -9 29 -35z m-167 -123 c23 -13 25 -55 4 -64 -28 -10 -65 11 -65 38 0 33 26 44 61 26z m227 -34 c5 -25 -12 -39 -37 -31 -26 8 -27 23 -3 41 21 17 36 13 40 -10z m-129 -40 c16 -18 5 -41 -26 -55 -21 -10 -30 -9 -50 4 -23 16 -24 18 -8 35 9 10 27 21 39 23 11 2 24 5 27 6 4 0 12 -5 18 -13z m-36 -155 c29 -23 21 -60 -14 -73 -29 -10 -31 -13 -29 -57 2 -25 2 -52 1 -58 -1 -17 -50 -16 -70 1 -9 7 -29 18 -46 23 -42 14 -44 45 -5 73 l32 23 -28 22 c-27 21 -27 22 -8 41 24 24 141 27 167 5z m139 -13 c5 -14 -44 -68 -62 -68 -24 0 -22 31 4 55 29 27 52 32 58 13z m-15 -134 c17 -26 16 -27 -11 -50 -32 -28 -62 -19 -72 21 -13 54 52 76 83 29z m-1251 -25 c3 -6 1 -16 -5 -22 -9 -9 -14 -8 -21 3 -9 15 -4 30 10 30 5 0 12 -5 16 -11z m970 -98 c-9 -14 -33 -14 -41 -1 -4 6 -1 18 6 26 11 13 14 13 27 0 8 -8 11 -19 8 -25z m114 -70 c0 -11 -4 -22 -9 -25 -12 -8 -34 21 -26 34 11 17 35 11 35 -9z m-290 -17 c0 -8 -9 -14 -20 -14 -19 0 -27 19 -14 33 10 9 34 -4 34 -19z m71 -45 c8 -16 6 -21 -13 -28 -27 -10 -62 4 -52 22 23 40 45 42 65 6z m-141 -14 c0 -8 -4 -15 -10 -15 -5 0 -10 7 -10 15 0 8 5 15 10 15 6 0 10 -7 10 -15z m108 -108 c4 -21 -25 -34 -40 -19 -8 8 -8 16 2 27 16 19 34 15 38 -8z"/> <path d="M6226 2211 c-13 -15 -17 -28 -12 -48 21 -86 25 -112 26 -150 0 -23 5 -45 10 -48 25 -15 7 -54 -54 -119 -70 -75 -97 -135 -116 -264 -6 -37 -18 -101 -26 -142 -34 -167 -50 -350 -33 -382 5 -10 19 -18 31 -18 17 0 20 4 15 30 -13 64 40 135 71 94 16 -22 11 -129 -8 -165 -12 -21 -10 -76 8 -219 6 -41 15 -120 22 -175 6 -55 19 -125 28 -155 9 -30 16 -75 16 -100 1 -56 -25 -87 -104 -127 -68 -35 -73 -58 -12 -58 146 2 219 6 232 15 12 7 13 19 2 80 -11 62 -10 75 4 103 15 28 15 40 4 112 -7 44 -14 139 -14 212 -1 124 0 134 21 155 30 29 38 20 64 -73 11 -41 28 -82 37 -93 14 -15 17 -41 17 -145 1 -79 5 -134 13 -148 21 -38 14 -87 -18 -131 -16 -23 -39 -46 -50 -52 -11 -6 -20 -20 -20 -31 0 -19 4 -20 38 -16 97 15 142 24 149 30 3 4 6 31 4 60 -1 28 4 68 12 87 23 54 21 211 -4 337 -18 90 -20 132 -16 249 3 78 10 151 16 163 17 31 38 26 46 -11 l8 -32 16 33 c11 22 36 44 76 67 66 36 87 41 103 21 6 -7 19 -88 30 -180 15 -131 23 -172 37 -185 17 -16 17 -15 10 23 -3 22 -10 76 -15 120 -4 44 -15 112 -24 150 -20 90 -20 203 0 301 12 55 15 110 12 183 -5 100 -4 106 19 127 13 12 28 36 34 54 10 27 9 36 -8 58 -16 21 -33 29 -81 37 -33 6 -64 14 -68 18 -5 4 -9 35 -10 69 -2 51 -7 65 -30 89 -36 37 -123 63 -184 54 -88 -12 -83 -14 -104 43 -26 72 -66 102 -144 108 -49 4 -61 2 -76 -15z"/> </g> </svg> 